<?xml version="1.0" standalone="no"?>
<!DOCTYPE svg PUBLIC "-//W3C//DTD SVG 20010904//EN"
 "http://www.w3.org/TR/2001/REC-SVG-20010904/DTD/svg10.dtd">
<svg version="1.0" xmlns="http://www.w3.org/2000/svg"
 width="260.000000pt" height="260.000000pt" viewBox="0 0 260.000000 260.000000"
 preserveAspectRatio="xMidYMid meet">
<metadata>
Created by potrace 1.11, written by Peter Selinger 2001-2013
</metadata>
<g transform="translate(0.000000,260.000000) scale(0.100000,-0.100000)"
fill="#000000" stroke="none">
<path d="M1010 2589 c-222 -34 -419 -160 -493 -316 -29 -62 -32 -77 -33 -170
l-2 -101 -63 -76 c-119 -142 -199 -297 -252 -486 -18 -65 -21 -103 -21 -275 0
-172 3 -210 21 -275 122 -439 428 -747 852 -857 133 -35 329 -42 471 -18 435
72 786 376 925 800 29 89 55 255 55 350 0 153 -42 342 -109 490 -77 170 -251
375 -406 477 -38 26 -78 60 -87 76 -22 38 -130 137 -171 159 -18 9 -53 35 -79
58 -63 56 -189 121 -284 145 -93 24 -236 32 -324 19z m-96 -403 c95 -50 157
-62 260 -47 47 6 104 18 126 26 35 12 40 12 40 -1 0 -20 31 -79 84 -162 24
-37 58 -95 75 -129 l31 -63 -46 29 c-121 77 -274 61 -374 -39 -36 -36 -40 -37
-91 -32 -45 4 -58 10 -80 36 -44 52 -121 88 -208 96 l-76 6 40 20 c31 14 58
18 118 16 69 -2 77 0 77 17 0 19 -21 41 -59 61 -29 15 -111 5 -111 -14 0 -8
-11 -21 -25 -30 -26 -17 -26 -17 -19 11 7 30 59 160 72 179 7 12 81 54 94 54
4 0 37 -15 72 -34z m1162 -288 c132 -139 233 -338 275 -543 18 -85 15 -313 -5
-402 -44 -202 -136 -377 -275 -526 -25 -27 -58 -57 -73 -68 l-27 -19 -70 45
c-89 57 -228 125 -258 125 -33 0 -97 63 -122 119 -68 160 -41 295 97 480 l62
84 93 1 c108 2 157 21 237 93 103 93 130 222 64 315 -34 49 -95 88 -138 88
-23 0 -27 3 -21 18 19 51 35 147 35 220 l0 84 48 -40 c26 -22 61 -55 78 -74z
m-1450 43 c-10 -47 -34 -81 -57 -81 -16 0 14 87 38 112 15 15 28 27 29 25 1
-1 -3 -26 -10 -56z m-107 -118 c-16 -13 -43 -54 -61 -90 l-32 -65 11 -136 c8
-115 14 -146 37 -194 36 -75 93 -133 154 -154 49 -18 50 -19 100 -124 105
-221 297 -459 444 -550 32 -19 57 -37 57 -40 1 -8 -100 -72 -171 -107 -37 -19
-104 -60 -149 -93 -82 -58 -83 -59 -113 -43 -107 55 -256 184 -343 296 -296
383 -282 958 33 1325 37 44 37 44 49 21 11 -20 9 -25 -16 -46z m79 2 c-54 -28
-91 -73 -119 -142 -17 -41 -19 -43 -13 -13 14 77 55 132 119 161 58 27 68 22
13 -6z m604 -2 c-50 -28 -93 -73 -119 -128 -23 -46 -24 -47 -19 -15 12 67 101
159 156 160 8 0 0 -8 -18 -17z m-363 -30 c62 -39 104 -118 99 -189 l-3 -49
-14 45 c-7 26 -29 60 -52 83 -38 38 -41 39 -94 35 -44 -4 -62 -11 -85 -33 -35
-34 -36 -46 -8 -105 12 -25 20 -50 19 -57 -1 -7 13 -4 36 8 43 22 123 25 167
6 l28 -12 -33 -44 c-46 -60 -107 -91 -179 -91 l-58 0 -11 75 c-6 42 -11 114
-11 160 0 84 0 85 -25 85 -23 0 -25 -3 -25 -49 l0 -49 -45 -4 c-42 -3 -45 -2
-45 22 1 34 34 105 64 135 14 14 37 25 51 25 15 0 25 6 25 14 0 37 134 29 199
-11z m592 -10 c206 -112 120 -424 -117 -423 -44 0 -118 31 -152 63 -81 75 -90
208 -21 302 64 86 192 112 290 58z m-638 -90 c-7 -2 -19 -2 -25 0 -7 3 -2 5
12 5 14 0 19 -2 13 -5z m240 -15 c-4 -13 -8 -57 -8 -98 1 -89 30 -155 94 -213
61 -55 97 -70 184 -75 100 -6 153 14 227 83 35 33 74 59 108 70 39 14 52 24
52 39 0 11 7 45 16 77 12 43 22 60 41 68 36 17 37 9 3 -24 -47 -45 -35 -48 21
-6 98 74 186 76 255 7 133 -133 -29 -377 -251 -378 -35 0 -68 2 -73 6 -5 3 4
40 23 88 39 99 50 142 35 133 -5 -3 -10 -11 -10 -18 0 -28 -97 -205 -153 -280
-81 -106 -93 -126 -117 -188 -58 -147 -37 -323 50 -423 38 -43 43 -31 -75
-154 -67 -70 -127 -112 -160 -112 -21 0 -19 35 5 112 11 34 20 68 20 73 0 6
-21 20 -47 32 -63 29 -198 138 -260 210 -119 137 -229 320 -288 478 -28 73
-29 79 -16 70 15 -9 25 15 12 28 -9 9 -14 8 -21 -3 -6 -9 -10 -10 -10 -3 0 6
-2 18 -5 25 -5 11 6 15 49 16 30 1 72 8 92 17 36 15 37 15 21 -3 -24 -26 -21
-63 8 -102 45 -61 87 -73 166 -44 24 8 73 21 109 28 40 7 64 17 62 24 -1 7 2
12 8 12 26 0 4 23 -45 47 l-56 27 -67 -18 c-84 -24 -143 -30 -162 -16 -13 9
-11 13 9 31 14 11 37 23 53 26 38 7 36 23 -3 23 l-31 0 41 46 c53 60 74 126
69 215 -3 62 -2 69 15 69 15 0 17 -4 10 -22z m-279 -4 c13 -33 7 -46 -19 -42
-29 6 -32 -8 -10 -38 17 -22 19 -34 5 -34 -13 0 -40 54 -40 79 0 11 10 27 22
35 28 20 34 20 42 0z m93 -6 c25 -28 43 -62 43 -81 0 -9 -9 -12 -29 -9 -26 3
-29 7 -22 26 9 24 5 44 -17 69 -22 25 1 21 25 -5z m-263 -104 c19 -7 22 -34 4
-34 -6 0 -22 -10 -35 -21 l-22 -22 -11 27 c-17 45 -13 56 19 56 16 0 36 -3 45
-6z m-29 -220 c11 -14 33 -26 49 -28 25 -3 31 -9 43 -47 17 -59 17 -60 -14
-48 -59 22 -128 113 -147 194 -7 30 -7 30 21 -8 15 -21 37 -49 48 -63z m1085
-874 l38 -20 -14 -62 c-16 -70 -60 -169 -106 -241 l-30 -47 -28 44 c-32 49
-82 91 -122 101 l-27 7 48 38 c26 21 81 74 122 119 41 45 75 81 77 81 1 0 20
-9 42 -20z m128 -44 c26 -13 78 -44 115 -68 l68 -44 -73 -42 c-74 -42 -256
-117 -265 -109 -2 3 9 32 25 64 27 53 49 119 66 196 4 15 9 27 12 27 2 0 26
-11 52 -24z m-539 -115 c18 -33 13 -38 -37 -43 -26 -3 -73 -16 -104 -30 -47
-22 -56 -23 -51 -10 14 39 68 106 116 144 l52 40 7 -40 c4 -23 12 -50 17 -61z
m-193 -18 c-14 -21 -31 -60 -38 -88 -6 -27 -13 -51 -14 -53 -3 -6 -114 40
-114 47 0 6 178 130 188 131 1 0 -9 -17 -22 -37z m338 -82 c51 -23 103 -76 86
-86 -31 -19 -417 0 -453 22 -12 7 40 40 111 70 50 21 67 23 136 18 44 -3 98
-14 120 -24z"/>
<path d="M1206 2010 c-37 -11 -66 -38 -66 -62 0 -16 9 -18 80 -18 49 0 92 -5
108 -14 15 -7 38 -17 50 -21 22 -6 23 -5 12 14 -6 12 -28 34 -49 49 -20 15
-38 32 -38 37 -2 9 -35 23 -58 23 -5 0 -23 -4 -39 -8z"/>
<path d="M1203 1700 c-40 -24 -59 -52 -78 -116 -20 -66 -19 -67 15 -49 40 21
120 19 180 -4 27 -11 50 -15 50 -11 0 5 -5 12 -11 15 -7 5 -6 12 4 23 8 10 22
32 32 51 16 32 16 34 -7 58 -51 55 -127 69 -185 33z m116 -14 c50 -26 56 -41
36 -86 -10 -22 -24 -40 -32 -40 -8 0 -13 3 -11 8 2 4 10 20 18 35 12 25 11 30
-7 55 -11 15 -33 30 -49 33 -24 6 -25 7 -6 8 13 0 35 -5 51 -13z m-81 -26 c2
-24 -2 -30 -18 -30 -23 0 -24 -4 -10 -31 9 -16 7 -19 -9 -19 -11 0 -27 -3 -36
-6 -15 -6 -15 -4 0 32 15 37 52 84 65 84 3 0 7 -13 8 -30z"/>
<path d="M1803 1570 c-24 -10 -43 -26 -43 -35 0 -8 4 -15 9 -15 5 0 14 -14 20
-31 13 -38 1 -94 -29 -132 -11 -14 -20 -27 -20 -30 0 -3 18 -12 41 -21 38 -15
43 -15 84 3 68 30 112 120 85 171 -14 26 -67 50 -112 50 -25 0 -29 3 -18 10
23 15 93 12 135 -6 47 -19 44 0 -5 34 -41 27 -91 28 -147 2z"/>
<path d="M955 1400 c-7 -12 2 -30 16 -30 5 0 9 9 9 20 0 21 -15 27 -25 10z"/>
<path d="M1035 1390 c-8 -13 4 -32 16 -25 12 8 12 35 0 35 -6 0 -13 -4 -16
-10z"/>
<path d="M767 1284 c-9 -10 2 -24 19 -24 8 0 14 7 14 15 0 15 -21 21 -33 9z"/>
<path d="M1220 1275 c0 -8 7 -15 15 -15 8 0 15 7 15 15 0 8 -7 15 -15 15 -8 0
-15 -7 -15 -15z"/>
<path d="M1424 1276 c-8 -22 3 -33 18 -18 9 9 9 15 0 24 -9 9 -13 7 -18 -6z"/>
<path d="M1320 1255 c0 -8 7 -15 15 -15 8 0 15 7 15 15 0 8 -7 15 -15 15 -8 0
-15 -7 -15 -15z"/>
<path d="M1403 1190 c8 -35 -13 -52 -125 -105 -124 -58 -257 -67 -357 -24 -24
11 -46 17 -48 15 -5 -5 68 -66 79 -66 4 0 5 -13 2 -29 -13 -62 79 -108 124
-63 18 18 19 18 43 0 41 -34 119 -2 119 48 0 18 11 29 41 45 51 26 139 106
139 127 0 13 3 13 18 -1 23 -21 36 -21 51 -3 10 11 8 16 -8 21 -11 3 -31 19
-45 36 -31 37 -40 37 -33 -1z m-199 -247 c-28 -20 -71 -16 -88 9 -9 12 -14 24
-12 26 3 2 28 9 58 16 53 12 53 11 56 -13 2 -15 -3 -30 -14 -38z m-128 38 c8
-4 9 -14 3 -28 -17 -46 -109 -22 -109 28 0 16 6 18 48 12 26 -3 52 -8 58 -12z"/>
<path d="M1195 875 c-35 -16 -123 -19 -159 -5 -31 11 -34 0 -6 -25 45 -41 174
-24 201 26 11 22 5 23 -36 4z"/>
<path d="M1299 703 c-34 -40 -114 -54 -174 -29 -19 8 -35 11 -35 6 0 -17 75
-60 105 -60 42 0 92 29 116 68 22 33 12 45 -12 15z"/>
</g>
</svg>
